<svg xmlns="http://www.w3.org/2000/svg" xmlns:xlink="http://www.w3.org/1999/xlink" id="Layer_1" x="0" y="0" version="1.1" viewBox="0 0 48 48" xml:space="preserve" style="enable-background:new 0 0 48 48"><style type="text/css">.st0{fill:#7e8ccf}.st1{fill:#3f51b5}.st2{fill:#c5cae9}.st3{fill:#9fa8da}</style><path d="M27,45L9,38V9l18,7V45z" class="st0"/><path d="M9,38l13-5V4L9,9V38z" class="st1"/><path d="M9,38l13-5l18,7l-13,5L9,38z" class="st2"/><path d="M27,45l13-5V11l-13,5V45z" class="st1"/><path d="M30,18l8-3v4l-8,3V18z M30,24l8-3v2l-8,3V24z M30,28l8-3v2l-8,3V28z M30,32l8-3v2l-8,3V32z" class="st3"/><g><polygon points="20 23 20 10 16 11.5 16 24.5" class="st0"/></g><path d="M9,9l13-5l18,7l-13,5L9,9z" class="st2"/></svg>