<svg xmlns="http://www.w3.org/2000/svg" xmlns:xlink="http://www.w3.org/1999/xlink" width="18" height="18" viewBox="0 0 48 48"><path fill="#CFD8DC" d="M43,38c0,2.209-1.791,4-4,4H9c-2.209,0-4-1.791-4-4V10c0-2.209,1.791-4,4-4h30c2.209,0,4,1.791,4,4V38z"/><rect width="28" height="4" x="10" y="10" fill="#F44336"/><g><rect width="22" height="4" x="16" y="22" fill="#90A4AE"/><rect width="22" height="4" x="16" y="28" fill="#90A4AE"/><rect width="22" height="4" x="16" y="34" fill="#90A4AE"/><rect width="4" height="4" x="10" y="22" fill="#90A4AE"/><rect width="4" height="4" x="10" y="28" fill="#90A4AE"/><rect width="4" height="4" x="10" y="34" fill="#90A4AE"/><rect width="22" height="4" x="16" y="16" fill="#90A4AE"/><rect width="4" height="4" x="10" y="16" fill="#90A4AE"/></g></svg>