<svg xmlns="http://www.w3.org/2000/svg" xmlns:svg="http://www.w3.org/2000/svg" id="svg3" width="18" height="18" version="1.1" viewBox="0 0 48 48"><path id="path1" fill="#ffa000" d="M 40,11.240678 H 22 l -4,-4 H 8 c -2.2,0 -4,1.8 -4,4 v 8 h 40 v -4 c 0,-2.2 -1.8,-4 -4,-4 z"/><path id="path2" fill="#ffca28" d="M 40,11.240678 H 8 c -2.2,0 -4,1.8 -4,4 v 20 c 0,2.2 1.8,4 4,4 h 32 c 2.2,0 4,-1.8 4,-4 v -20 c 0,-2.2 -1.8,-4 -4,-4 z"/><path id="path3" fill="#39a9f4" d="m 10,24.240678 v 17 h 8 v -9 h 12 v 9 h 8 v -17 z"/></svg>