<svg xmlns="http://www.w3.org/2000/svg" xmlns:xlink="http://www.w3.org/1999/xlink" width="18" height="18" viewBox="0 0 48 48"><path fill="#78909C" d="M45,38c0,1.104-0.896,2-2,2H5c-1.104,0-2-0.896-2-2V10c0-1.104,0.896-2,2-2h38c1.104,0,2,0.896,2,2V38z"/><path fill="#37474F" d="M43,8H14v32h29c1.104,0,2-0.896,2-2V10C45,8.896,44.104,8,43,8z"/><g><rect width="6" height="16" x="16" y="22" fill="#546E7A"/><rect width="6" height="16" x="23" y="22" fill="#546E7A"/><rect width="6" height="16" x="30" y="22" fill="#546E7A"/><rect width="6" height="16" x="37" y="22" fill="#546E7A"/></g><g><circle cx="19" cy="26" r="2" fill="#CFD8DC"/><circle cx="26" cy="26" r="2" fill="#CFD8DC"/><circle cx="33" cy="26" r="2" fill="#CFD8DC"/><circle cx="40" cy="26" r="2" fill="#CFD8DC"/></g><rect width="19" height="5" x="20" y="11" fill="#448AFF"/><circle cx="8.5" cy="19.5" r="2.5" fill="#37474F"/><g><circle cx="19" cy="20" r="1" fill="#76FF03"/><circle cx="8.5" cy="19.5" r="1" fill="#76FF03"/><circle cx="33" cy="20" r="1" fill="#76FF03"/><circle cx="40" cy="20" r="1" fill="#76FF03"/><circle cx="26" cy="20" r="1" fill="#76FF03"/><circle cx="19" cy="20" r="1" fill="#76FF03"/><circle cx="33" cy="20" r="1" fill="#76FF03"/><circle cx="40" cy="20" r="1" fill="#76FF03"/><circle cx="26" cy="20" r="1" fill="#76FF03"/></g></svg>