<?xml version="1.0" encoding="utf-8"?><!-- Generator: Adobe Illustrator 15.0.0, SVG Export Plug-In . SVG Version: 6.00 Build 0)  --><!DOCTYPE svg PUBLIC "-//W3C//DTD SVG 1.1//EN" "http://www.w3.org/Graphics/SVG/1.1/DTD/svg11.dtd"><svg xmlns="http://www.w3.org/2000/svg" xmlns:xlink="http://www.w3.org/1999/xlink" viewBox="0 0 48 48" width="48px" height="48px"><path fill="#455A64" d="M32,6h-8c0,1.104-1,3-3,3s-3-1.896-3-3h-8c-2.209,0-4,1.791-4,4v30c0,2.209,1.791,4,4,4h22c2.209,0,4-1.791,4-4V10C36,7.791,34.209,6,32,6"/><path fill="#FFFFFF" d="M32,41H10c-0.552,0-1-0.448-1-1V10c0-0.552,0.448-1,1-1h22c0.552,0,1,0.448,1,1v30C33,40.552,32.552,41,32,41z"/><g><path fill="#90A4AE" d="M23,6c0,1.105-0.895,2-2,2s-2-0.895-2-2h-7v4c0,1.105,0.895,2,2,2h14c1.105,0,2-0.895,2-2V6H23z"/><path fill="#90A4AE" d="M21,2c-2.206,0-4,1.794-4,4s1.794,4,4,4s4-1.794,4-4S23.206,2,21,2 M21,8c-1.103,0-2-0.896-2-2s0.897-2,2-2s2,0.896,2,2S22.103,8,21,8"/></g><rect x="17" y="17" fill="#90CAF9" width="25" height="30"/><g><rect x="21" y="37" fill="#1976D2" width="12" height="2"/><rect x="21" y="33" fill="#1976D2" width="17" height="2"/><rect x="21" y="29" fill="#1976D2" width="12" height="2"/><rect x="21" y="25" fill="#1976D2" width="17" height="2"/></g></svg>