<svg xmlns="http://www.w3.org/2000/svg" xmlns:xlink="http://www.w3.org/1999/xlink" viewBox="0,0,256,256" width="48px" height="48px" fill-rule="nonzero"><g fill="none" fill-rule="nonzero" stroke="none" stroke-width="1" stroke-linecap="butt" stroke-linejoin="miter" stroke-miterlimit="10" stroke-dasharray="" stroke-dashoffset="0" font-family="none" font-weight="none" font-size="none" text-anchor="none" style="mix-blend-mode: normal"><g transform="scale(5.33333,5.33333)"><path d="M42,35c0,2.209 -1.791,3 -4,3h-28c-2.209,0 -4,-0.791 -4,-3l3,-12c0.219,-2.094 1.791,-4 4,-4h22c2.209,0 3.688,1.75 4,4z" fill="#455a64"></path><path d="M42,27c0,2.209 -1.791,3 -4,3h-28c-2.209,0 -4,-0.791 -4,-3l3,-12c0.219,-2.094 1.791,-4 4,-4h22c2.209,0 3.688,1.75 4,4z" fill="#455a64"></path><path d="M42,19c0,2.209 -1.791,3 -4,3h-28c-2.209,0 -4,-0.791 -4,-3l3,-12c0.61,-1.662 1.791,-3 4,-3h22c2.209,0 3.201,1.087 4,3z" fill="#455a64"></path><g fill="#78909c"><path d="M38,22h-28c-2.209,0 -4,-0.791 -4,-3v6c0,2.209 1.791,3 4,3h28c2.209,0 4,-0.791 4,-3v-6c0,2.209 -1.791,3 -4,3z"></path><path d="M38,30h-28c-2.209,0 -4,-0.791 -4,-3v6c0,2.209 1.791,3 4,3h28c2.209,0 4,-0.791 4,-3v-6c0,2.209 -1.791,3 -4,3z"></path><path d="M38,38h-28c-2.209,0 -4,-0.791 -4,-3v6c0,2.209 1.791,3 4,3h28c2.209,0 4,-0.791 4,-3v-6c0,2.209 -1.791,3 -4,3z"></path></g><g fill="#64dd17"><path d="M35,39c-1.10457,0 -2,0.89543 -2,2c0,1.10457 0.89543,2 2,2c1.10457,0 2,-0.89543 2,-2c0,-1.10457 -0.89543,-2 -2,-2zM35,31c-1.10457,0 -2,0.89543 -2,2c0,1.10457 0.89543,2 2,2c1.10457,0 2,-0.89543 2,-2c0,-1.10457 -0.89543,-2 -2,-2zM35,23c-1.10457,0 -2,0.89543 -2,2c0,1.10457 0.89543,2 2,2c1.10457,0 2,-0.89543 2,-2c0,-1.10457 -0.89543,-2 -2,-2z"></path></g></g></g><g fill="none" fill-rule="nonzero" stroke="none" stroke-width="1" stroke-linecap="butt" stroke-linejoin="miter" stroke-miterlimit="10" stroke-dasharray="" stroke-dashoffset="0" font-family="none" font-weight="none" font-size="none" text-anchor="none" style="mix-blend-mode: normal"><g transform="translate(131.66667,147.66667) scale(5.33333,5.33333)" id="overlay"><path d="M20,10c0,5.5 -4.5,10 -10,10c-5.5,0 -10,-4.5 -10,-10c0,-5.5 4.5,-10 10,-10c5.5,0 10,4.5 10,10" fill="#ab47bc"></path><g fill="#f3e5f5"><path d="M9.9,13c-0.4,0 -0.8,0.1 -1.1,0.4c-0.3,0.3 -0.4,0.6 -0.4,1.1c0,0.4 0.1,0.8 0.4,1.1c0.3,0.3 0.7,0.4 1.1,0.4c0.4,0 0.8,-0.1 1.1,-0.4c0.3,-0.3 0.4,-0.6 0.4,-1.1c0,-0.4 -0.1,-0.8 -0.4,-1.1c-0.3,-0.3 -0.7,-0.4 -1.1,-0.4z"></path><path d="M13,4.8c-0.7,-0.5 -1.7,-0.8 -3,-0.8c-1.3,0 -2.3,0.3 -3,0.9c-0.6,0.6 -1,1.4 -1,2.5v0.6h2.9v-0.6c0,-0.4 0.1,-0.7 0.3,-1c0.2,-0.2 0.5,-0.3 0.8,-0.3c0.7,0 1.1,0.4 1.1,1.2c0,0.3 -0.1,0.6 -0.3,0.9c-0.2,0.3 -0.5,0.6 -1,0.9c-0.4,0.3 -0.7,0.7 -0.9,1.2c-0.2,0.5 -0.3,0.9 -0.3,1.7h2.4c0,-0.4 0.1,-0.6 0.2,-0.8c0.1,-0.3 0.3,-0.5 0.6,-0.8l1,-0.9c0.4,-0.4 0.7,-0.8 0.9,-1.1c0.2,-0.4 0.3,-0.8 0.3,-1.2c0,-1 -0.3,-1.8 -1,-2.4z"></path></g></g></g></svg>