<svg xmlns="http://www.w3.org/2000/svg" xmlns:xlink="http://www.w3.org/1999/xlink" viewBox="0,0,256,256" width="48px" height="48px" fill-rule="nonzero"><g fill="none" fill-rule="nonzero" stroke="none" stroke-width="1" stroke-linecap="butt" stroke-linejoin="miter" stroke-miterlimit="10" stroke-dasharray="" stroke-dashoffset="0" font-family="none" font-weight="none" font-size="none" text-anchor="none" style="mix-blend-mode: normal"><g transform="scale(5.33333,5.33333)"><path d="M42,35c0,2.209 -1.791,3 -4,3h-28c-2.209,0 -4,-0.791 -4,-3l3,-12c0.219,-2.094 1.791,-4 4,-4h22c2.209,0 3.688,1.75 4,4z" fill="#455a64"></path><path d="M42,27c0,2.209 -1.791,3 -4,3h-28c-2.209,0 -4,-0.791 -4,-3l3,-12c0.219,-2.094 1.791,-4 4,-4h22c2.209,0 3.688,1.75 4,4z" fill="#455a64"></path><path d="M42,19c0,2.209 -1.791,3 -4,3h-28c-2.209,0 -4,-0.791 -4,-3l3,-12c0.61,-1.662 1.791,-3 4,-3h22c2.209,0 3.201,1.087 4,3z" fill="#455a64"></path><g fill="#78909c"><path d="M38,22h-28c-2.209,0 -4,-0.791 -4,-3v6c0,2.209 1.791,3 4,3h28c2.209,0 4,-0.791 4,-3v-6c0,2.209 -1.791,3 -4,3z"></path><path d="M38,30h-28c-2.209,0 -4,-0.791 -4,-3v6c0,2.209 1.791,3 4,3h28c2.209,0 4,-0.791 4,-3v-6c0,2.209 -1.791,3 -4,3z"></path><path d="M38,38h-28c-2.209,0 -4,-0.791 -4,-3v6c0,2.209 1.791,3 4,3h28c2.209,0 4,-0.791 4,-3v-6c0,2.209 -1.791,3 -4,3z"></path></g><g fill="#64dd17"><path d="M35,39c-1.10457,0 -2,0.89543 -2,2c0,1.10457 0.89543,2 2,2c1.10457,0 2,-0.89543 2,-2c0,-1.10457 -0.89543,-2 -2,-2zM35,31c-1.10457,0 -2,0.89543 -2,2c0,1.10457 0.89543,2 2,2c1.10457,0 2,-0.89543 2,-2c0,-1.10457 -0.89543,-2 -2,-2zM35,23c-1.10457,0 -2,0.89543 -2,2c0,1.10457 0.89543,2 2,2c1.10457,0 2,-0.89543 2,-2c0,-1.10457 -0.89543,-2 -2,-2z"></path></g></g></g><g fill="none" fill-rule="nonzero" stroke="none" stroke-width="1" stroke-linecap="butt" stroke-linejoin="miter" stroke-miterlimit="10" stroke-dasharray="" stroke-dashoffset="0" font-family="none" font-weight="none" font-size="none" text-anchor="none" style="mix-blend-mode: normal"><g transform="translate(151.06061,147.66667) scale(4.84848,4.84848)" id="overlay"><path d="M8.1,11c1.4,-1.4 3.9,-4.1 3.9,-6c0,-2.7 -2.2,-4 -5,-4c-2.8,0 -5,1.3 -5,4c0,1.9 2.5,4.6 3.9,6c-1.4,1.4 -3.9,4.1 -3.9,6c0,2.7 2.2,4 5,4c2.8,0 5,-1.3 5,-4c0,-1.9 -2.5,-4.6 -3.9,-6z" fill="#bbdefb"></path><path d="M12,4h-10v-2h10zM12,18h-10v2h10z" fill="#6d4c41"></path><path d="M14,2h-14v-2h14zM14,20h-14v2h14z" fill="#8d6e63"></path><path d="M4,18c1,-2 3,-4 3,-4c0,0 2,2 3,4zM4.4,6c0.5,0.9 1.5,2.1 2.6,3.3c1.2,-1.2 2.1,-2.4 2.6,-3.3z" fill="#ff9800"></path></g></g></svg>