<svg xmlns="http://www.w3.org/2000/svg" xmlns:svg="http://www.w3.org/2000/svg" id="svg4" width="18" height="18" version="1.1" viewBox="0 0 48 48"><path id="path1" fill="#b0bec5" d="M6,8h36v27H6V8z" style="fill:#546e7a;fill-opacity:1"/><path id="path2" fill="#004d40" d="M9,11h30v20H9V11z"/><path id="path3" fill="#78909c" d="M21 35h6v3h-6V35zM33 38c-2 0-16 0-18 0s-2 2-2 2v1h22v-1C35 40 35 38 33 38z" style="fill:#455a64;fill-opacity:1"/><path id="path4" fill="#1de9b6" d="M27 28.9L19.9 16.9 16.8 22 9 22 9 20 15.7 20 20 13.1 27 25.1 30.1 20 38.9 20 38.9 22 31.2 22z"/></svg>