<svg xmlns="http://www.w3.org/2000/svg" xmlns:svg="http://www.w3.org/2000/svg" id="svg2" width="18" height="18" version="1.1" viewBox="0 0 48 48"><path style="fill:#388e3c" id="path1" d="M43,38.833C43,41.135,41.135,43,38.833,43H17.167C14.866,43,13,41.135,13,38.833V17.167 C13,14.865,14.866,13,17.167,13h21.667C41.135,13,43,14.865,43,17.167V38.833z"/><path style="fill:#c8e6c9" id="path2" d="M35,30.833C35,33.135,33.135,35,30.833,35H9.167C6.866,35,5,33.135,5,30.833V9.167 C5,6.865,6.866,5,9.167,5h21.667C33.135,5,35,6.865,35,9.167V30.833z"/></svg>